<svg id="Layer_1" viewBox="0 0 24 24" xmlns="http://www.w3.org/2000/svg" data-name="Layer 1"><path d="m19.925 7.254c-.188-1.139-.72-2.171-1.536-2.986l-2.656-2.657c-1.039-1.039-2.42-1.611-3.89-1.611h-6.343c-3.032 0-5.5 2.467-5.5 5.5v13c0 3.032 2.468 5.5 5.5 5.5h11c.828 0 1.5-.672 1.5-1.5s-.672-1.5-1.5-1.5h-11c-1.379 0-2.5-1.121-2.5-2.5v-13c0-1.378 1.121-2.5 2.5-2.5h5.5v4c0 1.105.895 2 2 2h5.5v-.007c.895-.01 1.578-.861 1.425-1.738zm3.275 10.146c.442 0 .8.358.8.8 0 .442-.358.8-.8.8h-1.4c-.442 0-.8-.358-.8-.8v-6.4c0-.442.358-.8.8-.8.442 0 .8.358.8.8v5.6zm-12.9-6.4h2.4c.442 0 .8.358.8.8 0 .442-.358.8-.8.8h-.4v5.601c0 .442-.358.8-.8.8-.442 0-.8-.358-.8-.8v-5.601h-.4c-.442 0-.8-.358-.8-.8 0-.442.358-.8.8-.8zm5.35 7.249c-.026.422-.376.751-.799.751-.461 0-.827-.389-.799-.849l.383-6.228c.037-.705.405-.923.847-.923.293 0 .566.165.721.563l.997 2.637.997-2.637c.155-.398.428-.563.721-.563.442 0 .81.218.847.923l.383 6.228c.028.46-.337.849-.799.849-.423 0-.773-.329-.799-.751l-.167-2.68-.467 1.197c-.255.654-1.18.654-1.434 0l-.466-1.197-.167 2.679zm-10.85-7.249c.442 0 .8.358.8.8v2.4h1.4v-2.4c0-.442.358-.8.8-.8.442 0 .8.358.8.8v6.4c0 .442-.358.8-.8.8-.442 0-.8-.358-.8-.8v-2.4h-1.4v2.4c0 .442-.358.8-.8.8-.442 0-.8-.358-.8-.8v-6.4c0-.442.358-.8.8-.8z"/></svg>